<?xml version="1.0" standalone="no"?>
<!DOCTYPE svg PUBLIC "-//W3C//DTD SVG 20010904//EN"
 "http://www.w3.org/TR/2001/REC-SVG-20010904/DTD/svg10.dtd">
<svg version="1.0" xmlns="http://www.w3.org/2000/svg"
 width="100.000000pt" height="100.000000pt" viewBox="0 0 100.000000 100.000000"
 preserveAspectRatio="xMidYMid meet">

<g transform="translate(0.000000,100.000000) scale(0.100000,-0.100000)"
fill="#252525" stroke="none">
<path d="M45 787 c-3 -7 -4 -140 -3 -297 l3 -285 455 0 455 0 0 295 0 295
-453 3 c-359 2 -454 0 -457 -11z m875 -287 l0 -260 -420 0 -420 0 0 260 0 260
420 0 420 0 0 -260z"/>
<path d="M450 662 c-25 -8 -47 -19 -48 -24 -2 -5 -15 -22 -28 -37 -33 -39 -34
-124 -3 -157 l22 -23 -37 -51 c-35 -49 -36 -50 -12 -50 13 0 26 -7 30 -15 9
-25 21 -17 44 31 20 40 26 45 45 39 28 -9 46 -9 74 0 19 6 25 1 45 -39 23 -48
35 -56 44 -31 4 8 17 15 30 15 24 0 23 1 -12 50 l-37 51 22 23 c29 31 30 125
1 151 -11 10 -22 26 -25 35 -3 10 -24 23 -48 29 -23 7 -46 14 -52 15 -5 2 -30
-4 -55 -12z m95 -39 c27 -6 65 -67 65 -103 0 -41 -39 -95 -77 -107 -67 -21
-143 36 -143 107 0 59 73 128 120 112 8 -2 24 -7 35 -9z"/>
</g>
</svg>
