<?xml version="1.0" standalone="no"?>
<!DOCTYPE svg PUBLIC "-//W3C//DTD SVG 20010904//EN"
 "http://www.w3.org/TR/2001/REC-SVG-20010904/DTD/svg10.dtd">
<svg version="1.0" xmlns="http://www.w3.org/2000/svg"
 width="48.000000pt" height="48.000000pt" viewBox="0 0 48.000000 48.000000"
 preserveAspectRatio="xMidYMid meet">

<g transform="translate(0.000000,48.000000) scale(0.100000,-0.100000)"
fill="#000000" stroke="none">
<path d="M92 428 c-17 -17 -17 -359 0 -376 8 -8 52 -12 132 -12 l120 0 -42 43
c-37 38 -42 48 -42 90 l0 47 47 0 c34 0 53 -6 70 -22 l23 -21 0 69 0 70 -63
62 -63 62 -85 0 c-53 0 -90 -5 -97 -12z"/>
<path d="M300 162 c0 -10 24 -41 53 -70 51 -51 54 -52 70 -34 16 17 14 21 -36
70 -54 53 -87 66 -87 34z"/>
<path d="M436 41 c-14 -15 -14 -20 -3 -30 11 -8 18 -7 31 8 14 15 14 20 3 30
-11 8 -18 7 -31 -8z"/>
</g>
</svg>
