<?xml version="1.0" standalone="no"?>
<!DOCTYPE svg PUBLIC "-//W3C//DTD SVG 20010904//EN"
 "http://www.w3.org/TR/2001/REC-SVG-20010904/DTD/svg10.dtd">
<svg version="1.0" xmlns="http://www.w3.org/2000/svg"
 width="100.000000pt" height="100.000000pt" viewBox="0 0 100.000000 100.000000"
 preserveAspectRatio="xMidYMid meet">

<g transform="translate(0.000000,100.000000) scale(0.100000,-0.100000)"
fill="#000000" stroke="none">
<path d="M395 946 c-85 -20 -147 -57 -216 -125 -76 -77 -113 -147 -131 -250
-25 -145 21 -282 131 -392 110 -110 247 -156 392 -131 103 18 173 55 250 131
76 77 113 147 131 250 25 145 -21 282 -131 392 -119 118 -271 163 -426 125z
m85 -116 l0 -90 -71 0 c-68 0 -70 1 -64 23 13 43 61 112 94 134 19 13 36 23
37 23 2 0 4 -40 4 -90z m124 27 c22 -29 56 -96 56 -112 0 -3 -31 -5 -70 -5
l-70 0 0 90 0 91 29 -16 c17 -8 41 -30 55 -48z m-248 8 c-13 -19 -32 -55 -42
-80 l-19 -45 -68 0 c-64 0 -67 1 -57 19 16 31 91 92 145 117 66 31 69 30 41
-11z m344 5 c43 -22 116 -85 130 -111 10 -18 7 -19 -57 -19 l-68 0 -19 45
c-10 25 -29 61 -42 81 l-24 35 22 -7 c13 -3 39 -15 58 -24z m-423 -202 c-3
-18 -9 -59 -13 -90 l-6 -58 -89 0 c-102 0 -100 -2 -73 91 27 91 25 89 110 89
l76 0 -5 -32z m203 -58 l0 -90 -91 0 -92 0 7 63 c15 126 7 117 97 117 l79 0 0
-90z m203 63 c3 -16 9 -56 13 -90 l7 -63 -92 0 -91 0 0 90 0 90 79 0 c78 0 79
0 84 -27z m214 -43 c38 -110 38 -110 -66 -110 l-89 0 -6 58 c-4 31 -10 72 -13
90 l-5 33 78 -3 79 -3 22 -65z m-633 -207 c4 -32 10 -73 13 -91 l5 -33 -78 3
-79 3 -22 65 c-38 110 -38 110 66 110 l89 0 6 -57z m216 -33 l0 -90 -79 0 -79
0 -11 63 c-6 35 -11 76 -11 90 l0 27 90 0 90 0 0 -90z m216 28 c-15 -127 -7
-118 -97 -118 l-79 0 0 90 0 90 91 0 92 0 -7 -62z m224 40 c-1 -13 -11 -52
-23 -88 l-22 -65 -79 -3 -78 -3 5 33 c3 18 9 59 13 91 l6 57 89 0 c86 0 89 -1
89 -22z m-606 -243 c10 -25 29 -61 42 -81 l24 -35 -22 7 c-64 19 -166 92 -188
135 -10 18 -7 19 57 19 l68 0 19 -45z m166 -45 l0 -91 -29 16 c-35 18 -74 66
-96 118 -8 20 -15 39 -15 42 0 3 32 5 70 5 l70 0 0 -90z m180 85 c0 -3 -7 -22
-15 -42 -22 -52 -61 -100 -96 -118 l-29 -16 0 91 0 90 70 0 c39 0 70 -2 70 -5z
m171 -14 c-22 -40 -131 -118 -189 -136 l-22 -6 24 35 c13 20 32 56 42 81 l19
45 68 0 c63 0 67 -1 58 -19z"/>
</g>
</svg>
