<?xml version="1.0" standalone="no"?>
<!DOCTYPE svg PUBLIC "-//W3C//DTD SVG 20010904//EN"
 "http://www.w3.org/TR/2001/REC-SVG-20010904/DTD/svg10.dtd">
<svg version="1.0" xmlns="http://www.w3.org/2000/svg"
 width="96.000000pt" height="96.000000pt" viewBox="0 0 96.000000 96.000000"
 preserveAspectRatio="xMidYMid meet">

<g transform="translate(0.000000,96.000000) scale(0.100000,-0.100000)"
fill="#000000" stroke="none">
<path d="M299 900 l-30 -29 3 -148 3 -148 25 0 25 0 5 145 5 145 210 2 210 2
-92 -30 c-129 -41 -123 -24 -123 -359 0 -335 -6 -318 123 -359 l92 -30 -210 2
-210 2 -5 145 -5 145 -25 0 -25 0 -3 -148 -3 -148 30 -29 29 -30 272 0 272 0
29 29 29 29 0 392 0 392 -29 29 -29 29 -272 0 -272 0 -29 -30z"/>
<path d="M367 593 c-4 -3 -7 -23 -7 -44 l0 -39 -162 -2 -163 -3 0 -25 0 -25
162 -3 162 -2 3 -43 c4 -62 28 -61 94 4 30 29 54 60 54 69 0 9 -24 39 -53 68
-49 49 -74 61 -90 45z"/>
</g>
</svg>
