<?xml version="1.0" standalone="no"?>
<!DOCTYPE svg PUBLIC "-//W3C//DTD SVG 20010904//EN"
 "http://www.w3.org/TR/2001/REC-SVG-20010904/DTD/svg10.dtd">
<svg version="1.0" xmlns="http://www.w3.org/2000/svg"
 width="48.000000pt" height="48.000000pt" viewBox="0 0 48.000000 48.000000"
 preserveAspectRatio="xMidYMid meet">

<g transform="translate(0.000000,48.000000) scale(0.100000,-0.100000)"
fill="#000000" stroke="none">
<path d="M144 385 c-9 -52 3 -100 35 -134 17 -18 32 -48 36 -71 5 -30 12 -40
25 -40 13 0 20 10 25 40 4 23 19 53 36 71 32 34 44 82 35 134 l-7 35 -89 0
-89 0 -7 -35z m156 -25 c0 -17 -7 -20 -50 -20 -53 0 -56 -3 -40 -47 l10 -28
-20 24 c-11 13 -20 38 -20 57 l0 34 60 0 c53 0 60 -2 60 -20z"/>
<path d="M107 183 c-48 -19 -67 -31 -65 -42 2 -8 46 -34 100 -59 l98 -43 96
42 c85 38 116 60 102 74 -2 2 -34 16 -71 30 -66 25 -67 25 -67 4 0 -14 10 -24
30 -32 17 -6 30 -14 30 -18 0 -3 -27 -17 -60 -32 l-60 -26 -60 26 c-33 15 -60
29 -60 32 0 4 14 12 30 18 20 8 30 18 30 32 0 12 -1 21 -2 20 -2 0 -34 -12
-71 -26z"/>
</g>
</svg>
