<?xml version="1.0" standalone="no"?>
<!DOCTYPE svg PUBLIC "-//W3C//DTD SVG 20010904//EN"
 "http://www.w3.org/TR/2001/REC-SVG-20010904/DTD/svg10.dtd">
<svg version="1.0" xmlns="http://www.w3.org/2000/svg"
 width="48.000000pt" height="48.000000pt" viewBox="0 0 48.000000 48.000000"
 preserveAspectRatio="xMidYMid meet">

<g transform="translate(0.000000,48.000000) scale(0.100000,-0.100000)"
fill="#000000" stroke="none">
<path d="M178 423 c-15 -14 -24 -15 -62 -6 -25 5 -48 8 -51 5 -3 -3 7 -18 21
-33 32 -33 24 -50 -19 -42 l-32 6 40 -42 c45 -47 60 -52 51 -17 -9 36 12 42
43 12 15 -14 30 -24 33 -21 3 3 1 26 -5 50 -9 38 -8 48 7 64 10 11 15 25 11
30 -9 15 -18 14 -37 -6z"/>
<path d="M260 422 c0 -13 10 -24 30 -31 28 -9 30 -14 30 -56 0 -38 4 -48 20
-52 11 -3 20 -14 20 -24 0 -14 -9 -18 -47 -21 -46 -3 -48 -4 -51 -36 -4 -38
12 -62 39 -62 12 0 19 -7 19 -20 0 -24 -35 -40 -86 -40 -26 0 -34 4 -34 18 0
23 -19 42 -41 42 -12 0 -19 9 -21 28 -2 21 -9 28 -30 30 -21 3 -28 9 -28 26 0
23 -17 46 -33 46 -18 0 0 -89 27 -133 19 -33 40 -52 78 -71 67 -33 112 -33
179 2 43 22 59 38 81 81 35 67 35 112 2 179 -19 37 -38 59 -67 76 -64 37 -87
41 -87 18z"/>
</g>
</svg>
